<svg id="Layer_1" data-name="Layer 1" xmlns="http://www.w3.org/2000/svg" width="30" height="30" viewBox="0 0 647 474"><defs><style>.cls-1{fill:#fff;}</style></defs><title>instagram</title><path class="cls-1" d="M1074,258h210V732H637V258H998a81.58,81.58,0,0,1-8.36.83q-70.74.12-141.49.12a116.84,116.84,0,0,0-41.57,7.49c-47.18,17.86-78.83,62.33-79.08,112.78-.28,58.32.48,116.65.85,175,0,1.58.2,3.6,1.15,4.68,7,8,14,15.93,21.38,23.47,8.46,8.6,17.39,16.74,25.9,24.87-.11-.83-.34-2.41-.54-4-.84-6.59-2.39-13.18-2.38-19.76.1-59-.21-118,.95-177,1.1-56.3,48.25-101.52,104.61-101.72,55.66-.2,111.33,0,167-.08,24.53,0,46.64,7.22,65.82,22.39,26.63,21.06,40.71,48.64,41.15,82.82.16,12.31,0,24.62.1,36.93.12,18.13.34,36.26.49,54.39.08,9,.06,17.95.16,26.93,0,1.64.36,3.28.69,6,3.67-3.43,6.31-6,9.11-8.48a30.25,30.25,0,0,1,4-2.54c.43,1.9,1.87,4.59,1.12,5.55-3.53,4.48-4,7.29,2.36,9.4,1.25.42,1.79,4.09,1.85,6.29,0,.56-3.47,2.14-4.65,1.64a143.8,143.8,0,0,1-13.17-6.93c-.21-.11,0-.93,0-1.42a8.09,8.09,0,0,0-1.89,5.14c-.07,9.14.42,18.32-.09,27.44-.65,11.24-.66,22.81-3.43,33.59-12.35,48-54.27,79.87-103.89,80-54.83.15-109.66.38-164.49.3-8.42,0-16.85-1.54-25.27-2.34-1-.1-2.1,0-4.72,0,3.5,3.28,6,5.54,8.43,7.92,7.71,7.64,13.37,17.27,23,23.12a12.36,12.36,0,0,1,4.61,5.72c1.51,3.86,4.34,4.71,7.86,4.77,6.47.11,13,.23,19.43.25,52.33.15,104.66.62,157,.3,41.31-.26,74.19-18,98.59-51.09,18.21-24.68,23-53,22.7-83.16-.52-59.81.22-119.63.13-179.44,0-17,.53-34.19-2.1-50.83-8.13-51.52-50.6-92.09-102-99.29C1084.16,259.39,1079.08,258.7,1074,258ZM964.33,336.77l-9.15-1.87.16-.94h10.34c-28.31-.86-56.62-.87-84.93-.86-2,0-4,0-6,.13a78.06,78.06,0,0,0-69.87,56.65C801.17,403,802,416.31,802,429.59c0,49.15-.13,98.31.29,147.46.38,44.58,34.82,78.52,79.32,78.69,54.66.21,109.31,0,164,.47a78.82,78.82,0,0,0,79.73-80.76c-.9-43.64-.19-87.31-.52-131-.13-17.1.71-34.52-2.19-51.22-5.79-33.33-36.64-58.78-70.74-59.8-25.63-.76-51.31-.2-77,.13-3.56,0-7.09,2.14-10.64,3.28Z" transform="translate(-637 -258)"/><path d="M1074,258c5.08.7,10.16,1.39,15.24,2.1,51.42,7.2,93.89,47.77,102,99.29,2.63,16.64,2.07,33.87,2.1,50.83.09,59.81-.65,119.63-.13,179.44.26,30.13-4.49,58.48-22.7,83.16-24.4,33.08-57.28,50.83-98.59,51.09-52.32.32-104.65-.15-157-.3-6.48,0-13-.14-19.43-.25-3.52-.06-6.35-.91-7.86-4.77a12.36,12.36,0,0,0-4.61-5.72c-9.59-5.85-15.25-15.48-23-23.12-2.4-2.38-4.93-4.64-8.43-7.92,2.62,0,3.68-.09,4.72,0,8.42.8,16.85,2.33,25.27,2.34,54.83.08,109.66-.15,164.49-.3,49.62-.14,91.54-32,103.89-80,2.77-10.78,2.78-22.35,3.43-33.59.51-9.12,0-18.3.09-27.44a8.09,8.09,0,0,1,1.89-5.14c0,.49-.18,1.31,0,1.42a143.8,143.8,0,0,0,13.17,6.93c1.18.5,4.66-1.08,4.65-1.64-.06-2.2-.6-5.87-1.85-6.29-6.33-2.11-5.89-4.92-2.36-9.4.75-1-.69-3.65-1.12-5.55a30.25,30.25,0,0,0-4,2.54c-2.8,2.44-5.44,5-9.11,8.48-.33-2.76-.67-4.4-.69-6-.1-9-.08-17.95-.16-26.93-.15-18.13-.37-36.26-.49-54.39-.08-12.31.06-24.62-.1-36.93-.44-34.18-14.52-61.76-41.15-82.82-19.18-15.17-41.29-22.42-65.82-22.39-55.66.08-111.33-.12-167,.08-56.36.2-103.51,45.42-104.61,101.72-1.16,59-.85,118-.95,177,0,6.58,1.54,13.17,2.38,19.76.2,1.59.43,3.17.54,4-8.51-8.13-17.44-16.27-25.9-24.87-7.42-7.54-14.4-15.52-21.38-23.47-1-1.08-1.14-3.1-1.15-4.68-.37-58.32-1.13-116.65-.85-175,.25-50.45,31.9-94.92,79.08-112.78A116.84,116.84,0,0,1,848.15,259q70.76,0,141.49-.12A81.58,81.58,0,0,0,998,258ZM931.59,304.26l.06-.37c1,0,2.12.29,3-.07a41.55,41.55,0,0,0,4.75-2.72A25.51,25.51,0,0,0,935,299c-4-1.14-8.56-1-9.67-6.85-.27-1.37-3.79-2.51-6-3-1.17-.24-3.92,1.73-3.88,1.81,1.65,3.87,2.73,8.54,5.64,11.14C923.44,304.15,928,303.64,931.59,304.26ZM902,268.47c-.43-.6-1.06-2.26-2.25-3a56.74,56.74,0,0,0-9.06-4.61,4.91,4.91,0,0,0-4,.52c-.75.51-1.27,2.72-.79,3.38,2.11,2.93,4.26,6.05,7.09,8.2C896.78,275.87,901.74,273.66,902,268.47Zm289.72,272.27-1,0v28.51h1Z" transform="translate(-637 -258)"/><path d="M964.19,336.88c3.55-1.14,7.08-3.24,10.64-3.28,25.66-.33,51.34-.89,77-.13,34.1,1,65,26.47,70.74,59.8,2.9,16.7,2.06,34.12,2.19,51.22.33,43.65-.38,87.32.52,131a78.82,78.82,0,0,1-79.73,80.76c-54.65-.44-109.3-.26-164-.47-44.5-.17-78.94-34.11-79.32-78.69-.42-49.15-.32-98.31-.29-147.46,0-13.28-.78-26.59,2.94-39.71a78.06,78.06,0,0,1,69.87-56.65c2-.13,4-.13,6-.13,28.31,0,56.62,0,84.93.86H955.34l-.16.94,9.14,1.87c-1.63,3.61-.67,7,2.52,8.6,6.12,3.1,9.71,8.62,14.33,13.18a12.25,12.25,0,0,0,5.81,2.8c.66.15,2.79-2.24,2.56-2.89a15.74,15.74,0,0,0-3.35-5c-1.14-1.27-3.49-2-3.83-3.35-.94-3.79-3.1-5.15-6.75-5.21-2.8-.05-4-1.36-2.57-4.22a14.22,14.22,0,0,0,.74-2.59ZM965,604.42c54.89-.24,99.36-44.72,99.27-99.1A99.46,99.46,0,0,0,965,406c-54.29-.15-99.38,44.79-99.34,98.63C865.68,560.26,909.86,604.65,965,604.42Zm41.15-233.93c-.94,1.94-1.89,3.08-2,4.31-.81,7.61,3.85,15.24,10.75,18.73a11.66,11.66,0,0,1,5.18,4.82c2.66,5.75,6.41,9.92,12.55,12,1.54.52,2.75,2.16,4,3.39,1.49,1.46,2.75,3.18,4.32,4.55,3.42,3,7,5.71,10.43,8.7.8.7,1,2,1.61,3a11.7,11.7,0,0,0,2.16,3.23c3.87,3.2,7.88,6.21,11.82,9.33.5.4,1.15,1,1.23,1.51.54,3.73,3.53,5.07,6,7.26,3.22,2.84,5.16,7.1,9.84,8.31.47.12.66,1.12,1.09,1.61,6,6.66,11.16,14.37,18.18,19.62,5.58,4.16,9,9.56,13.26,14.47.7.8,1.91,2.13,2.39,1.94,1.08-.42,2.67-1.74,2.57-2.51-.38-3.19-.3-7.34-2.24-9.26-4.46-4.39-9.73-8-14.17-12.52-1-1-2-2-3-3-1.74-1.72-3.23-3.86-5.28-5-2.77-1.6-3.58-3.1-.93-5.19,1.92-1.53,3.54-2.8,1.11-5.08-1.93-1.83-3.57-1.75-5.47.4-2.41,2.75-4.3,2.43-5.7-1.35-.65-1.75-2.56-3.07-4-4.49-1.09-1.09-2.33-2-3.5-3,1-1.12,2.16-2.17,3.09-3.37a24.21,24.21,0,0,0,1.75-3c-1.15-.47-2.36-1.4-3.46-1.29-1.41.14-2.73,1.64-4.08,1.63-1.83,0-4.23-.34-5.38-1.51-3.89-4-7-8.83-11.12-12.42-2.31-2-5.45-2.75-5.84-6.49-.08-.74-1.36-1.34-2.07-2-2-1.91-4-3.86-6.13-5.75-1.08-1-2.27-1.86-3.42-2.79-4.2-3.39-6.49-9.26-12.9-9.84-.35,0-.53-1.48-.87-2.22a11.42,11.42,0,0,0-1.62-3c-4.63-5-9.42-9.87-14-14.91a47.74,47.74,0,0,1-3.57-5.2C1008.13,373.1,1007.45,372.24,1006.16,370.49Zm61.78,2.16c-10.55,0-18.42,7.66-18.7,17.89-.33,12.33,10.19,18.82,18.3,18.84,10.12,0,18.84-8.21,18.84-18C1086.37,380.72,1078.47,372.68,1067.94,372.65Z" transform="translate(-637 -258)"/><path class="cls-1" d="M931.59,304.26c-3.57-.62-8.15-.11-10.44-2.16-2.91-2.6-4-7.27-5.64-11.14,0-.08,2.71-2,3.88-1.81,2.19.45,5.71,1.59,6,3,1.11,5.81,5.63,5.71,9.67,6.85a25.51,25.51,0,0,1,4.32,2.14,41.55,41.55,0,0,1-4.75,2.72c-.84.36-2,.07-3,.07Z" transform="translate(-637 -258)"/><path class="cls-1" d="M902,268.47c-.22,5.19-5.18,7.4-9,4.48-2.83-2.15-5-5.27-7.09-8.2-.48-.66,0-2.87.79-3.38a4.91,4.91,0,0,1,4-.52,56.74,56.74,0,0,1,9.06,4.61C900.9,266.21,901.53,267.87,902,268.47Z" transform="translate(-637 -258)"/><path class="cls-1" d="M1191.68,540.74v28.48h-1V540.71Z" transform="translate(-637 -258)"/><path class="cls-1" d="M965,604.42c-55.15.23-99.33-44.16-99.38-99.84,0-53.84,45-98.78,99.34-98.63a99.46,99.46,0,0,1,99.31,99.37C1064.37,559.7,1019.9,604.18,965,604.42Zm70.84-98.6c-.22-40-32.07-72-71.82-71.53a71.29,71.29,0,0,0,.6,142.58C1004.12,576.78,1036.05,544.9,1035.85,505.82Z" transform="translate(-637 -258)"/><path class="cls-1" d="M1006.16,370.49c1.29,1.75,2,2.61,2.58,3.51a47.74,47.74,0,0,0,3.57,5.2c4.61,5,9.4,9.9,14,14.91a11.42,11.42,0,0,1,1.62,3c.34.74.52,2.19.87,2.22,6.41.58,8.7,6.45,12.9,9.84,1.15.93,2.34,1.8,3.42,2.79,2.08,1.89,4.09,3.84,6.13,5.75.71.67,2,1.27,2.07,2,.39,3.74,3.53,4.5,5.84,6.49,4.17,3.59,7.23,8.45,11.12,12.42,1.15,1.17,3.55,1.5,5.38,1.51,1.35,0,2.67-1.49,4.08-1.63,1.1-.11,2.31.82,3.46,1.29a24.21,24.21,0,0,1-1.75,3c-.93,1.2-2,2.25-3.09,3.37,1.17,1,2.41,1.93,3.5,3,1.44,1.42,3.35,2.74,4,4.49,1.4,3.78,3.29,4.1,5.7,1.35,1.9-2.15,3.54-2.23,5.47-.4,2.43,2.28.81,3.55-1.11,5.08-2.65,2.09-1.84,3.59.93,5.19,2,1.17,3.54,3.31,5.28,5,1,1,2,2,3,3,4.44,4.51,9.71,8.13,14.17,12.52,1.94,1.92,1.86,6.07,2.24,9.26.1.77-1.49,2.09-2.57,2.51-.48.19-1.69-1.14-2.39-1.94-4.3-4.91-7.68-10.31-13.26-14.47-7-5.25-12.22-13-18.18-19.62-.43-.49-.62-1.49-1.09-1.61-4.68-1.21-6.62-5.47-9.84-8.31-2.49-2.19-5.48-3.53-6-7.26-.08-.55-.73-1.11-1.23-1.51-3.94-3.12-8-6.13-11.82-9.33A11.7,11.7,0,0,1,1053,430c-.58-1-.81-2.33-1.61-3-3.4-3-7-5.74-10.43-8.7-1.57-1.37-2.83-3.09-4.32-4.55-1.26-1.23-2.47-2.87-4-3.39-6.14-2.05-9.89-6.22-12.55-12a11.66,11.66,0,0,0-5.18-4.82c-6.9-3.49-11.56-11.12-10.75-18.73C1004.27,373.57,1005.22,372.43,1006.16,370.49Z" transform="translate(-637 -258)"/><path class="cls-1" d="M1067.94,372.65c10.53,0,18.43,8.07,18.44,18.76,0,9.76-8.72,18-18.84,18-8.11,0-18.63-6.51-18.3-18.84C1049.52,380.31,1057.39,372.62,1067.94,372.65Z" transform="translate(-637 -258)"/><path class="cls-1" d="M964.19,336.88l9.59,1.2a14.22,14.22,0,0,1-.74,2.59c-1.45,2.86-.23,4.17,2.57,4.22,3.65.06,5.81,1.42,6.75,5.21.34,1.34,2.69,2.08,3.83,3.35a15.74,15.74,0,0,1,3.35,5c.23.65-1.9,3-2.56,2.89a12.25,12.25,0,0,1-5.81-2.8c-4.62-4.56-8.21-10.08-14.33-13.18-3.19-1.61-4.15-5-2.52-8.6Z" transform="translate(-637 -258)"/><path d="M1035.85,505.82c.2,39.08-31.73,71-71.22,71.05a71.29,71.29,0,0,1-.6-142.58C1003.78,433.83,1035.63,465.81,1035.85,505.82Z" transform="translate(-637 -258)"/></svg>