<svg id="Layer_1" data-name="Layer 1" xmlns="http://www.w3.org/2000/svg" width="30" height="30" viewBox="0 0 553.92 553.92"><defs><style>.cls-1{fill:#fff;}</style></defs><title>linkedin</title><path class="cls-1" d="M1247,749H693V195H1247ZM970.52,699.72v.18c10.66,0,21.33,0,32,0,47.16-.08,94.31,0,141.47-.35,12.72-.08,24.06-5.28,34-12.89,17.09-13.12,25.19-30.62,25.11-52.35-.25-70-.13-140-.16-210q0-59.49,0-119a53.56,53.56,0,0,0-7.29-27.66c-13.67-23.1-34.09-33.84-60.91-33.71-51.66.27-103.32.08-155,.07-58.16,0-116.32.14-174.48-.12-13.57-.06-26.29,2.6-37.59,9.81-20.48,13-30.65,31.78-30.59,56.45q.35,163,.15,325.94c0,10.81,2.13,21.08,7.68,30.49,11.75,19.91,29.19,32.39,52.18,32.76C854.87,700.34,912.7,699.72,970.52,699.72Z" transform="translate(-693.04 -195.04)"/><path d="M970.52,699.72c-57.82,0-115.65.62-173.45-.31-23-.37-40.43-12.85-52.18-32.76-5.55-9.41-7.67-19.68-7.68-30.49q0-163-.15-325.94c-.06-24.67,10.11-43.4,30.59-56.45,11.3-7.21,24-9.87,37.59-9.81,58.16.26,116.32.12,174.48.12,51.65,0,103.31.2,155-.07,26.82-.13,47.24,10.61,60.91,33.71a53.56,53.56,0,0,1,7.29,27.66q0,59.49,0,119c0,70-.09,140,.16,210,.08,21.73-8,39.23-25.11,52.35-9.93,7.61-21.27,12.81-34,12.89-47.16.32-94.31.27-141.47.35-10.66,0-21.33,0-32,0Zm14.82-256c0-2.35,0-5.15,0-7.94-.09-7.64-3.35-11.1-10.9-11.16q-19.48-.17-39,0c-7.17,0-10.73,3.67-10.73,10.86q-.06,81.47,0,162.92c0,7.2,3.65,10.81,10.76,10.84q19.24.11,38.49,0c8.21,0,11.37-3.28,11.38-11.57,0-26.49.1-53,0-79.47a65.82,65.82,0,0,1,6.51-29.43c5.15-10.69,16.35-16.55,30.35-15.51a25.46,25.46,0,0,1,22.34,19.27,99.22,99.22,0,0,1,3,22.14c.34,27.48.12,55,.12,82.46,0,9,3.26,12.15,12.42,12.15,11.49,0,23,0,34.48,0,13.06,0,15.63-2.46,15.55-15.34-.21-31.14,0-62.29-.92-93.4a154.4,154.4,0,0,0-5.24-33.85c-5.64-21.71-19.19-36.54-41.47-42.1a91.26,91.26,0,0,0-18.2-2.42c-13.72-.54-27.48.35-39.74,7.07C997.66,433.05,991.86,438.76,985.34,443.77ZM839,516.8h0q0,39,0,77.94c0,11.37,3.36,14.64,14.57,14.6,9.16,0,18.33-.33,27.47,0,17.11.68,19-2.2,19-19.14q.13-73.93,0-147.88a62,62,0,0,0-.4-7.46c-.93-7.49-3.88-10.17-11.43-10.23q-17.24-.14-34.47,0c-12.1.08-14.72,2.75-14.72,14.73Q838.95,478.09,839,516.8Zm69.48-144c.42-20.88-16.9-37.48-37.59-38.08-23.73-.69-40.42,18.43-40.27,38.06.16,20.71,17.57,38.22,38.24,38.23C891.17,411,908.5,394.31,908.43,372.79Z" transform="translate(-693.04 -195.04)"/><path class="cls-1" d="M985.34,443.77c6.52-5,12.32-10.72,19.19-14.49,12.26-6.72,26-7.61,39.74-7.07a91.26,91.26,0,0,1,18.2,2.42c22.28,5.56,35.83,20.39,41.47,42.1a154.4,154.4,0,0,1,5.24,33.85c.9,31.11.71,62.26.92,93.4.08,12.88-2.49,15.36-15.55,15.34-11.49,0-23,0-34.48,0-9.16,0-12.41-3.18-12.42-12.15,0-27.49.22-55-.12-82.46a99.22,99.22,0,0,0-3-22.14,25.46,25.46,0,0,0-22.34-19.27c-14-1-25.2,4.82-30.35,15.51a65.82,65.82,0,0,0-6.51,29.43c.14,26.49.05,53,0,79.47,0,8.29-3.17,11.54-11.38,11.57q-19.25.06-38.49,0c-7.11,0-10.75-3.64-10.76-10.84q-.06-81.45,0-162.92c0-7.19,3.56-10.81,10.73-10.86q19.49-.17,39,0c7.55.06,10.81,3.52,10.9,11.16C985.37,438.62,985.34,441.42,985.34,443.77Z" transform="translate(-693.04 -195.04)"/><path class="cls-1" d="M839,516.8q0-38.71,0-77.43c0-12,2.62-14.65,14.72-14.73q17.24-.12,34.47,0c7.55.06,10.5,2.74,11.43,10.23a62,62,0,0,1,.4,7.46q0,73.95,0,147.88c0,16.94-1.89,19.82-19,19.14-9.14-.36-18.31,0-27.47,0-11.21,0-14.55-3.23-14.57-14.6q-.06-39,0-77.94Z" transform="translate(-693.04 -195.04)"/><path class="cls-1" d="M908.43,372.79c.07,21.52-17.26,38.22-39.62,38.21-20.67,0-38.08-17.52-38.24-38.23-.15-19.63,16.54-38.75,40.27-38.06C891.53,335.31,908.85,351.91,908.43,372.79Z" transform="translate(-693.04 -195.04)"/></svg>